<?xml version="1.0" standalone="no"?>
<!DOCTYPE svg PUBLIC "-//W3C//DTD SVG 20010904//EN"
 "http://www.w3.org/TR/2001/REC-SVG-20010904/DTD/svg10.dtd">
<svg version="1.0" xmlns="http://www.w3.org/2000/svg"
 width="419.000000pt" height="164.000000pt" viewBox="0 0 419.000000 164.000000"
 preserveAspectRatio="xMidYMid meet">

<g transform="translate(0.000000,164.000000) scale(0.100000,-0.100000)"
fill="#000000" stroke="none">
<path d="M303 1583 c-20 -7 -15 -47 7 -76 l21 -26 -35 -32 c-28 -25 -33 -35
-26 -53 11 -30 -4 -53 -46 -71 -37 -15 -54 -42 -35 -55 9 -5 2 -14 -21 -28
-56 -35 -70 -81 -43 -146 9 -21 34 -103 56 -184 29 -109 56 -181 104 -277 165
-332 383 -510 703 -571 174 -33 475 -28 617 12 28 8 64 13 80 13 30 -1 134 23
154 36 13 7 15 42 3 49 -4 3 -77 7 -161 10 -85 3 -156 7 -158 10 -3 3 4 18 16
34 28 39 27 52 -4 52 -16 0 -42 -16 -70 -41 -51 -47 -61 -48 -195 -2 -153 52
-275 146 -388 298 -94 127 -140 305 -145 565 l-2 125 35 -2 c19 0 56 -4 83 -8
31 -5 47 -4 47 3 0 18 -61 57 -125 82 -90 34 -149 64 -172 87 -11 11 -39 24
-61 28 -43 7 -65 24 -60 46 2 10 -11 15 -42 17 -57 4 -71 16 -63 54 9 44 -29
70 -74 51z m54 -19 c2 -7 -10 -14 -27 -16 -32 -5 -37 1 -18 20 15 15 40 12 45
-4z m92 -155 c26 -9 30 -15 25 -33 -4 -11 -8 -23 -10 -25 -7 -7 -54 42 -54 56
0 16 -1 16 39 2z m-46 -36 c-7 -2 -19 -2 -25 0 -7 3 -2 5 12 5 14 0 19 -2 13
-5z m139 -38 c5 -22 3 -24 -11 -13 -9 7 -13 9 -9 4 4 -5 3 -17 -3 -28 -11 -19
-11 -19 -35 3 -13 12 -24 18 -24 13 0 -5 -26 -7 -57 -5 l-58 4 85 23 c109 28
107 28 112 -1z m213 -45 c4 -6 0 -22 -9 -35 -18 -28 -90 -51 -217 -70 -47 -7
-104 -22 -127 -34 -32 -16 -51 -19 -86 -15 -38 6 -46 4 -46 -10 0 -9 -8 -16
-18 -16 -26 0 -54 33 -46 55 6 15 4 16 -14 6 -14 -7 -22 -23 -24 -49 l-4 -37
-12 27 c-15 35 -7 55 29 73 37 19 69 19 69 0 0 -20 49 -40 64 -25 7 7 6 10 -3
10 -8 0 -11 6 -7 15 3 8 1 15 -4 15 -6 0 -10 4 -10 8 0 10 264 82 298 82 13 0
22 -6 22 -15 0 -8 7 -15 15 -15 18 0 19 12 3 28 -9 9 3 12 54 12 37 0 70 -5
73 -10z m120 -51 c11 -17 -1 -21 -15 -4 -8 9 -8 15 -2 15 6 0 14 -5 17 -11z
m-164 -61 c1 -16 11 -208 13 -263 0 -22 5 -43 11 -47 5 -4 2 -14 -8 -26 -21
-23 -22 -39 -2 -22 8 7 15 11 16 9 0 -2 11 -47 24 -99 16 -65 20 -100 14 -112
-7 -14 -6 -18 6 -18 9 0 18 -7 21 -15 4 -8 12 -15 20 -15 7 0 20 -10 29 -22 8
-13 37 -52 62 -88 26 -36 48 -69 48 -73 0 -21 73 -79 122 -97 31 -11 72 -34
92 -50 23 -20 47 -30 68 -30 18 0 33 -4 33 -9 0 -5 17 -15 38 -22 52 -17 58
-21 36 -29 -22 -8 -66 2 -141 31 -51 21 -132 23 -161 5 -8 -5 -21 -1 -34 10
-11 10 -25 19 -31 20 -7 0 -18 2 -24 2 -7 1 -13 13 -13 27 0 20 -6 25 -37 30
-21 4 -48 10 -60 15 -29 12 -31 40 -3 33 10 -3 18 -10 17 -17 -1 -6 15 -12 38
-14 l39 -3 -19 22 c-41 46 -96 78 -123 73 -17 -3 -35 1 -47 11 -19 16 -19 16
3 5 13 -6 31 -10 40 -8 9 2 -21 20 -67 41 -46 21 -81 40 -78 43 3 3 19 -2 36
-10 33 -17 71 -21 71 -7 0 15 -41 61 -55 61 -7 0 -23 8 -36 19 l-23 18 22 12
c28 15 28 24 -3 58 l-25 28 6 -30 6 -30 -21 33 c-21 32 -51 44 -51 20 0 -8 -3
-9 -8 -3 -4 6 -13 10 -21 10 -8 0 -18 14 -23 31 -6 26 -38 68 -38 52 0 -16 25
-76 38 -91 25 -28 9 -29 -51 -2 -72 33 -95 80 -28 57 17 -6 32 -8 35 -4 5 10
1 46 -8 60 -6 10 -1 11 18 6 30 -7 34 9 10 41 -12 16 -18 18 -34 7 -27 -17
-30 -16 -30 13 0 14 -5 25 -11 25 -7 0 -9 -10 -7 -25 4 -18 1 -25 -10 -25 -12
0 -8 -8 11 -28 21 -22 24 -31 15 -40 -19 -19 -26 -15 -38 22 -6 19 -18 37 -26
40 -8 3 -12 11 -9 17 4 6 -2 21 -14 33 -21 22 -21 23 -2 40 26 23 42 13 35
-22 -4 -19 0 -33 10 -41 14 -12 16 -10 16 18 0 18 -5 42 -11 54 -12 22 -12 22
9 3 20 -17 22 -17 28 -2 10 25 -9 40 -33 27 -21 -11 -64 -4 -75 12 -11 17 22
57 47 57 27 0 39 24 25 50 -18 34 -12 50 20 50 17 0 39 9 50 20 11 11 26 20
34 20 8 0 18 5 21 11 4 6 20 8 38 4 22 -4 28 -3 18 3 -10 7 -5 12 20 20 76 24
109 27 110 10z m-342 -117 c11 -7 9 -11 -8 -20 -11 -7 -21 -10 -22 -9 -10 38
0 48 30 29z m-79 -21 c0 -5 -4 -10 -10 -10 -5 0 -10 5 -10 10 0 6 5 10 10 10
6 0 10 -4 10 -10z m-5 -100 c3 -5 1 -10 -4 -10 -6 0 -11 5 -11 10 0 6 2 10 4
10 3 0 8 -4 11 -10z m-29 -96 c8 -20 13 -38 10 -41 -2 -3 4 -25 15 -50 22 -51
23 -57 9 -48 -14 9 -13 5 11 -44 11 -24 45 -75 75 -114 30 -39 54 -76 54 -84
0 -13 127 -143 186 -191 l29 -23 -30 6 c-34 7 -144 110 -177 165 -11 19 -42
67 -68 105 -57 85 -103 173 -95 184 3 5 -8 39 -25 76 -34 75 -35 79 -18 69 8
-5 9 -2 5 9 -13 34 4 16 19 -19z m324 -262 c3 -3 -1 -7 -8 -9 -10 -4 -10 -8
-1 -19 6 -8 8 -14 5 -14 -4 0 1 -12 12 -27 40 -58 36 -65 -18 -38 -27 13 -52
30 -56 36 -5 8 -3 9 6 4 8 -5 4 5 -8 22 -19 27 -20 31 -5 46 15 15 58 15 73
-1z m98 -192 c1 0 2 -4 2 -10 0 -5 -13 -10 -30 -10 -30 0 -80 18 -80 30 0 16
15 18 58 4 26 -7 48 -14 50 -14z m58 -5 c23 -12 25 -15 9 -15 -11 1 -29 7 -39
15 -26 19 -6 19 30 0z m39 -85 c8 -13 -5 -13 -25 0 -13 8 -13 10 2 10 9 0 20
-4 23 -10z m18 -134 c31 -14 57 -22 57 -18 0 4 4 1 9 -6 4 -8 34 -15 69 -17
34 -2 70 -9 80 -15 18 -12 0 -11 -74 5 -28 6 -27 5 4 -9 43 -20 109 -27 342
-36 65 -2 65 -2 25 -12 -98 -24 -505 44 -505 84 0 5 -4 6 -10 3 -14 -8 -92 34
-84 46 3 6 11 8 18 6 6 -3 37 -17 69 -31z m375 -3 c-2 -9 -13 -17 -25 -18 -26
-2 -29 5 -11 23 18 18 40 15 36 -5z m33 -7 c-9 -11 -9 -15 1 -19 9 -4 9 -6 1
-6 -19 -1 -27 20 -12 30 20 13 23 11 10 -5z m349 4 c17 -6 1 -8 -53 -9 -50 -1
-76 3 -72 9 7 12 89 12 125 0z m238 -7 c-10 -2 -28 -2 -40 0 -13 2 -5 4 17 4
22 1 32 -1 23 -4z"/>
<path d="M475 1250 c-30 -8 -30 -8 8 -9 20 0 37 4 37 9 0 11 -2 11 -45 0z"/>
<path d="M390 1210 c0 -5 7 -10 16 -10 8 0 12 5 9 10 -3 6 -10 10 -16 10 -5 0
-9 -4 -9 -10z"/>
<path d="M356 1191 c-3 -4 6 -13 19 -19 27 -12 33 -4 13 16 -14 14 -25 15 -32
3z"/>
<path d="M671 1098 c-11 -28 -6 -58 9 -58 14 0 21 36 11 61 l-9 24 -11 -27z"/>
<path d="M470 1029 c0 -17 27 -45 35 -37 3 3 -3 16 -14 29 -16 19 -20 20 -21
8z"/>
<path d="M449 960 c21 -18 51 -27 51 -15 0 6 -56 35 -67 35 -4 -1 3 -10 16
-20z"/>
<path d="M424 941 c11 -11 23 -21 28 -21 14 0 -1 19 -25 31 -22 12 -22 12 -3
-10z"/>
<path d="M640 852 c0 -23 6 -45 15 -52 13 -11 15 -7 15 24 0 21 -7 44 -15 52
-13 14 -15 11 -15 -24z"/>
<path d="M506 860 c18 -71 32 -86 59 -66 17 12 17 14 -6 45 -13 17 -29 29 -35
27 -7 -3 -15 0 -18 7 -3 7 -3 1 0 -13z"/>
<path d="M761 654 c0 -11 3 -14 6 -6 3 7 2 16 -1 19 -3 4 -6 -2 -5 -13z"/>
<path d="M890 432 c6 -13 14 -21 18 -18 3 4 -2 14 -12 24 -18 16 -18 16 -6 -6z"/>
<path d="M740 170 c19 -11 40 -19 45 -19 6 0 -6 8 -25 19 -19 11 -39 19 -45
19 -5 0 6 -8 25 -19z"/>
<path d="M2041 1510 c-99 -52 -101 -55 -59 -80 19 -11 40 -32 46 -46 13 -27
18 -648 6 -679 -4 -8 -19 -22 -35 -31 -16 -8 -29 -21 -29 -29 0 -13 23 -15
140 -15 132 0 140 1 140 20 0 14 -9 21 -34 26 -73 13 -70 -1 -76 457 -3 261
-9 411 -15 413 -5 2 -43 -15 -84 -36z"/>
<path d="M3498 1509 c-43 -22 -78 -45 -78 -52 0 -7 17 -21 37 -32 26 -14 39
-30 45 -53 5 -18 7 -175 6 -348 l-3 -316 -25 -19 c-46 -35 -50 -40 -45 -50 4
-5 67 -9 141 -9 114 0 136 2 141 16 7 19 -13 34 -48 34 -41 0 -59 29 -59 93 0
48 3 58 26 76 15 12 32 21 39 21 7 0 29 -26 50 -57 21 -32 61 -86 89 -120 l51
-63 82 0 c93 0 113 5 113 30 0 13 -11 19 -45 24 -35 6 -57 18 -98 56 -48 44
-157 190 -157 210 0 9 94 82 130 100 13 7 47 18 75 24 32 8 50 17 50 26 0 12
-21 17 -95 23 -175 14 -250 -3 -166 -38 20 -9 36 -19 36 -25 0 -10 -128 -123
-160 -140 -20 -11 -20 -10 -20 294 0 167 -3 311 -6 320 -9 22 -19 20 -106 -25z"/>
<path d="M1260 1460 c0 -8 16 -25 36 -38 19 -12 39 -34 44 -48 6 -14 10 -157
10 -325 0 -334 -4 -358 -59 -377 -17 -6 -31 -18 -31 -26 0 -22 318 -23 327 0
8 20 4 23 -52 33 -27 5 -55 17 -62 27 -9 13 -13 61 -13 171 l0 153 79 0 c90 0
117 -14 136 -71 7 -19 19 -35 28 -37 15 -3 17 7 18 65 0 37 4 93 8 123 9 58 0
83 -24 73 -8 -3 -17 -20 -21 -39 -3 -19 -15 -39 -25 -44 -10 -6 -58 -10 -108
-10 l-91 0 0 154 c0 120 3 156 14 165 16 14 204 6 246 -10 14 -5 38 -30 52
-54 43 -71 51 -62 63 66 l5 66 -290 -1 c-251 -1 -290 -3 -290 -16z"/>
<path d="M3099 1139 c-55 -8 -76 -18 -109 -54 -21 -22 -25 -37 -25 -85 0 -75
17 -94 146 -160 53 -27 100 -57 103 -66 21 -55 -11 -94 -77 -94 -54 0 -107 25
-143 67 -18 20 -36 33 -43 29 -6 -4 -11 -32 -11 -61 0 -66 7 -71 115 -86 136
-19 232 19 256 101 15 49 1 105 -34 138 -12 12 -61 40 -107 63 -103 49 -120
64 -120 99 0 77 135 77 191 1 21 -29 52 -41 63 -23 5 9 -16 108 -26 117 -12
12 -130 21 -179 14z"/>
<path d="M2499 1116 c-80 -32 -119 -63 -119 -91 0 -28 30 -48 57 -39 10 4 38
28 63 55 43 47 46 49 79 40 47 -14 60 -37 61 -102 0 -63 -3 -66 -105 -90 -125
-30 -188 -80 -187 -148 1 -52 15 -77 55 -98 44 -23 101 -20 179 8 l67 23 24
-22 c29 -27 56 -28 106 -3 70 36 80 78 15 68 -19 -3 -37 -1 -43 6 -5 7 -11 90
-13 185 l-3 174 -33 29 c-28 25 -40 29 -90 29 -36 0 -77 -9 -113 -24z m141
-327 l0 -70 -35 -15 c-95 -39 -170 10 -138 91 8 23 100 65 141 65 l32 0 0 -71z"/>
<path d="M2485 513 c-14 -4 -6 -156 8 -165 21 -13 53 -8 70 10 35 39 8 88 -41
75 -19 -4 -21 0 -24 39 -2 25 -7 43 -13 41z m73 -119 c4 -29 -23 -51 -43 -34
-16 13 -20 42 -8 54 14 14 48 1 51 -20z"/>
<path d="M2745 513 c-6 -2 -9 -19 -7 -38 4 -31 2 -35 -20 -35 -31 0 -48 -18
-48 -51 0 -35 18 -49 62 -46 33 2 68 17 40 17 -7 0 -12 29 -14 78 -2 49 -7 77
-13 75z m-21 -89 c10 -4 16 -18 16 -36 0 -25 -4 -29 -22 -26 -23 3 -34 28 -24
54 6 16 8 16 30 8z"/>
<path d="M3175 512 c-5 -4 -10 -44 -10 -89 0 -81 1 -83 24 -83 18 0 21 3 13
13 -6 7 -12 47 -14 90 -2 48 -7 74 -13 69z"/>
<path d="M3973 449 c-6 -9 -8 -32 -4 -59 5 -39 10 -45 31 -48 22 -2 23 -1 8 8
-10 6 -18 23 -18 37 0 14 8 32 18 39 15 12 15 13 0 14 -9 0 -18 5 -20 11 -3 8
-7 7 -15 -2z"/>
<path d="M2170 436 c0 -2 12 -25 27 -51 l26 -48 15 29 15 28 14 -28 c8 -15 16
-26 17 -24 1 1 14 24 29 51 24 45 25 47 6 47 -11 0 -17 -5 -14 -10 8 -13 -4
-50 -16 -50 -5 0 -12 14 -15 30 -5 21 -12 30 -26 30 -17 0 -18 -3 -9 -14 10
-11 10 -20 0 -37 l-11 -22 -13 23 c-7 13 -11 30 -8 37 3 8 -3 13 -16 13 -12 0
-21 -2 -21 -4z"/>
<path d="M2375 420 c-37 -41 14 -100 62 -71 17 11 17 11 -2 10 -36 -2 -45 1
-45 15 0 8 14 17 30 21 33 7 37 14 18 33 -18 18 -43 15 -63 -8z m45 -5 c0 -9
-9 -15 -21 -15 -18 0 -19 2 -9 15 7 8 16 15 21 15 5 0 9 -7 9 -15z"/>
<path d="M2812 428 c-17 -17 -15 -63 3 -78 10 -8 24 -9 42 -4 l28 8 -25 4
c-41 6 -47 21 -12 33 34 12 42 33 16 43 -24 9 -39 7 -52 -6z m43 -8 c3 -6 -1
-13 -10 -16 -19 -8 -30 0 -20 15 8 14 22 14 30 1z"/>
<path d="M2910 435 c0 -3 13 -26 29 -51 l28 -46 27 47 c31 56 30 55 11 55 -8
0 -15 -8 -15 -17 0 -10 -5 -25 -10 -33 -9 -13 -12 -13 -25 3 -7 11 -11 25 -8
33 3 9 -2 14 -16 14 -12 0 -21 -2 -21 -5z"/>
<path d="M3054 415 c-15 -23 -15 -27 0 -50 17 -26 41 -32 66 -14 12 8 12 9 -5
7 -22 -3 -45 8 -45 23 0 5 8 9 18 9 9 0 23 4 31 9 12 8 12 12 2 25 -20 23 -48
19 -67 -9z m51 5 c3 -6 -1 -13 -10 -16 -19 -8 -30 0 -20 15 8 14 22 14 30 1z"/>
<path d="M3246 421 c-21 -23 -18 -60 6 -75 28 -17 72 4 76 37 6 53 -46 77 -82
38z m52 -3 c17 -17 15 -58 -3 -64 -19 -8 -45 13 -45 35 0 17 18 41 30 41 3 0
11 -5 18 -12z"/>
<path d="M3365 358 c0 -77 0 -78 25 -77 14 0 19 3 13 6 -7 2 -13 16 -13 29 0
18 5 24 23 24 31 0 47 18 47 51 0 34 -14 44 -60 45 l-35 0 0 -78z m70 27 c0
-23 -4 -30 -20 -30 -15 0 -21 8 -23 33 -3 30 -1 33 20 30 18 -2 23 -9 23 -33z"/>
<path d="M3499 436 c0 -1 -1 -22 -2 -49 -2 -43 0 -47 22 -47 19 0 21 3 11 14
-18 23 -8 61 17 64 17 3 24 -3 29 -22 4 -16 1 -32 -6 -41 -11 -13 -8 -15 15
-15 23 0 25 2 15 14 -6 8 -10 25 -8 38 2 17 10 23 28 23 22 0 25 -4 25 -38 0
-33 3 -37 25 -36 14 0 19 3 13 6 -7 2 -13 20 -13 38 0 19 -6 37 -12 42 -10 6
-154 14 -159 9z"/>
<path d="M3715 420 c-37 -41 14 -100 62 -71 17 11 17 11 -2 10 -36 -2 -45 1
-45 15 0 8 14 17 30 21 33 7 37 14 18 33 -18 18 -43 15 -63 -8z m45 -5 c0 -8
-7 -15 -15 -15 -16 0 -20 12 -8 23 11 12 23 8 23 -8z"/>
<path d="M3829 431 c-1 -3 -2 -25 -3 -48 -1 -40 1 -43 24 -43 17 0 21 3 12 9
-8 5 -12 21 -10 37 2 22 9 30 27 32 22 3 23 1 19 -37 -3 -38 -2 -41 20 -41 19
0 22 3 14 13 -6 6 -12 28 -14 47 -3 34 -4 35 -45 36 -24 0 -43 -2 -44 -5z"/>
<path d="M4059 366 c-1 -3 -2 -19 -3 -35 -1 -22 2 -27 12 -19 14 13 16 44 2
53 -5 3 -11 4 -11 1z"/>
<path d="M2705 283 c-6 -2 -9 -19 -7 -38 4 -31 2 -35 -20 -35 -31 0 -48 -18
-48 -51 0 -35 18 -49 62 -46 33 2 68 17 40 17 -7 0 -12 29 -14 78 -2 49 -7 77
-13 75z m-21 -89 c10 -4 16 -18 16 -36 0 -25 -4 -29 -22 -26 -23 3 -34 28 -24
54 6 16 8 16 30 8z"/>
<path d="M3726 261 c-4 -5 -2 -12 3 -15 5 -4 12 -2 15 3 4 5 2 12 -3 15 -5 4
-12 2 -15 -3z"/>
<path d="M3304 220 c-5 -5 -8 -30 -4 -57 4 -42 8 -48 30 -51 22 -2 23 -1 8 8
-11 6 -18 23 -18 40 0 17 7 33 18 39 15 9 15 10 0 11 -9 0 -18 5 -20 10 -2 8
-6 8 -14 0z"/>
<path d="M3633 218 c-6 -8 -8 -32 -4 -58 5 -39 10 -45 31 -48 22 -2 23 -1 8 8
-12 7 -18 23 -18 45 0 26 4 35 18 36 13 0 14 2 2 6 -8 3 -18 10 -21 15 -3 5
-10 3 -16 -4z"/>
<path d="M2200 192 c-30 -24 -21 -69 15 -78 34 -8 53 1 67 31 9 21 8 28 -7 45
-23 25 -46 25 -75 2z m46 0 c27 -18 19 -72 -11 -72 -23 0 -38 36 -25 60 11 21
19 24 36 12z"/>
<path d="M2322 200 c-4 -3 -7 -24 -7 -48 0 -38 2 -42 24 -42 19 0 21 3 11 14
-6 8 -10 25 -8 38 2 17 10 23 28 23 22 0 25 -4 25 -38 0 -26 4 -37 15 -37 12
0 15 9 12 40 -2 22 -9 43 -16 48 -12 8 -74 10 -84 2z"/>
<path d="M2466 194 c-9 -8 -16 -24 -16 -34 0 -21 26 -50 43 -49 7 0 21 5 32
10 l20 9 -20 -1 c-36 -2 -45 1 -45 15 0 8 14 17 30 21 33 7 37 14 18 33 -17
17 -44 15 -62 -4z m44 -9 c0 -8 -9 -15 -20 -15 -13 0 -18 5 -14 15 4 8 12 15
20 15 8 0 14 -7 14 -15z"/>
<path d="M2769 206 c0 0 -1 -22 -2 -49 -2 -43 0 -47 22 -47 19 0 21 3 11 14
-19 24 -8 59 20 67 14 4 23 8 20 9 -6 3 -70 8 -71 6z"/>
<path d="M2870 190 c-24 -24 -24 -29 -4 -58 18 -27 55 -29 77 -4 21 23 22 46
1 66 -21 22 -50 20 -74 -4z m60 -10 c10 -18 -1 -60 -15 -60 -20 0 -35 17 -35
39 0 45 30 57 50 21z"/>
<path d="M2984 193 c4 -8 6 -44 6 -79 0 -59 2 -64 22 -64 17 0 19 3 10 12 -21
21 -14 48 11 48 44 0 76 63 45 88 -7 5 -32 10 -56 9 -33 0 -42 -3 -38 -14z
m84 -28 c3 -31 -12 -48 -37 -40 -21 6 -29 43 -14 59 14 14 48 1 51 -19z"/>
<path d="M3203 203 c-7 -2 -13 -10 -13 -16 0 -8 4 -7 12 1 16 16 25 15 32 -4
4 -11 -3 -18 -25 -26 -34 -12 -37 -40 -4 -47 16 -3 17 -1 7 11 -13 16 -7 28
16 28 8 0 12 -6 9 -15 -7 -18 11 -31 25 -17 6 6 6 12 -1 16 -6 4 -11 23 -11
42 0 34 -13 41 -47 27z"/>
<path d="M3460 195 c-14 -17 0 -21 17 -4 8 8 13 8 17 0 9 -14 -1 -31 -18 -31
-19 0 -36 -23 -28 -37 8 -13 76 -13 88 0 4 4 2 7 -4 7 -6 0 -12 17 -14 38 -2
29 -8 38 -24 40 -11 2 -27 -4 -34 -13z m37 -60 c-4 -8 -11 -15 -17 -15 -14 0
-13 27 3 33 16 6 21 1 14 -18z"/>
<path d="M3725 202 c-5 -4 -10 -26 -10 -49 0 -39 2 -43 24 -43 18 0 21 3 13
13 -6 7 -12 29 -14 49 -2 23 -7 35 -13 30z"/>
<path d="M3789 205 c0 0 -1 -21 -2 -48 -2 -43 0 -47 22 -47 19 0 21 3 11 14
-18 23 -8 61 17 64 17 3 24 -3 29 -22 3 -14 4 -33 0 -41 -3 -10 1 -15 12 -15
14 0 17 7 14 41 -4 38 -3 40 19 37 20 -2 24 -9 24 -41 0 -33 3 -37 25 -36 14
0 19 3 13 6 -7 2 -13 19 -13 36 0 50 -8 55 -92 54 -43 -1 -78 -1 -79 -2z"/>
<path d="M4006 188 c-21 -29 -20 -41 4 -63 14 -13 26 -15 47 -9 l28 8 -32 4
c-42 4 -43 28 -3 37 33 7 37 14 18 33 -19 19 -45 14 -62 -10z m49 2 c3 -6 -1
-13 -10 -16 -19 -8 -30 0 -20 15 8 14 22 14 30 1z"/>
</g>
</svg>
